<svg width="1100" height="1113" viewBox="0 0 1100 1113" fill="none" xmlns="http://www.w3.org/2000/svg">
<path d="M906.89 355.57L1033.27 329.61" stroke="black" stroke-width="8" stroke-linecap="round" stroke-linejoin="round"/>
<path d="M889.84 413.76L971.32 397.55" stroke="black" stroke-width="8" stroke-linecap="round" stroke-linejoin="round"/>
<path d="M1082.6 162.53C1082.6 162.53 1110.77 220.88 1081.54 300.47L1033.28 403.2L1010.19 444.54L794.45 489.85C794.45 489.85 903.73 357.08 857.77 210.02L1082.61 162.53H1082.6Z" stroke="black" stroke-width="8" stroke-linecap="round" stroke-linejoin="round"/>
<path d="M912.91 228.81L1039.29 202.84" stroke="black" stroke-width="8" stroke-linecap="round" stroke-linejoin="round"/>
<path d="M199.04 948.92L174.46 1112.41H710.69L689.47 958.14L199.04 948.92Z" fill="#F97316"/>
<path d="M715.53 451.81L986.63 593.42C986.63 593.42 933.01 714.81 758.73 653.82C584.46 592.83 715.53 451.81 715.53 451.81Z" fill="#FFCDC2"/>
<path d="M326.77 288.97L252.67 348.18C252.67 348.18 384.7 559.32 402.57 1037.46C488.84 1043.45 572.72 1025.4 653.72 978.25C679.22 795.68 636.07 574.91 572.17 342.59L475.85 290.08L326.77 288.97Z" fill="white"/>
<path d="M252.66 348.18L115.25 456.54C115.25 456.54 253.78 472.18 226.96 621.88C200.15 771.58 154.35 968.19 154.35 968.19C154.35 968.19 276.32 1060.84 402.56 1037.45C585.77 1003.5 322.79 297.71 252.66 348.17V348.18Z" fill="#3B82F6"/>
<path d="M426.43 491.852C432.597 489.338 439.649 492.305 442.163 498.472L516.885 681.756L494.541 690.865L419.819 507.582C417.304 501.415 420.272 494.363 426.439 491.848L426.43 491.852Z" fill="#F97316"/>
<path d="M494.58 690.81L521.24 724.24L516.92 681.7L494.58 690.81Z" fill="#F97316"/>
<path d="M435.25 524.38L489.32 656.97" stroke="white" stroke-width="8" stroke-linecap="round" stroke-linejoin="round"/>
<path d="M499.33 688.87L512.18 683.63" stroke="white" stroke-width="8" stroke-linecap="round" stroke-linejoin="round"/>
<path d="M572.17 342.59L624.68 367.17C624.68 367.17 774.38 803.86 689.47 958.14L653.72 978.25L580.91 533.63L572.17 342.6V342.59Z" fill="#3B82F6"/>
<path d="M624.67 367.17C624.67 367.17 698.88 409.02 800.9 424.15C800.9 424.15 812.07 511.84 755.1 663.77L665.45 652.32L624.67 367.17Z" fill="#3B82F6"/>
<path d="M418.28 646.77C418.28 646.77 386.37 507.8 306.67 387.77" stroke="black" stroke-width="8" stroke-linecap="round" stroke-linejoin="round"/>
<path d="M444.04 1103.37V1069.85L479.44 1049.74" stroke="black" stroke-width="8" stroke-linecap="round" stroke-linejoin="round"/>
<path d="M900.56 548.47L879.12 574.46" stroke="black" stroke-width="8" stroke-linecap="round" stroke-linejoin="round"/>
<path d="M320.81 154.54C320.81 154.54 322.49 208.54 364.38 210.77C364.38 210.77 419.12 290.65 485.59 290.65C552.06 290.65 536.23 248.48 534.09 207.14C531.95 165.8 570.02 93.47 534.09 71.41C498.16 49.35 320.81 71.88 320.81 154.54Z" fill="#FFCDC2"/>
<path d="M320.81 154.54C320.81 154.54 293.63 62.56 366.24 23.83C405.4 2.94001 434.34 6.39001 454.22 16.32C471 24.69 491.38 22.08 505.35 9.58001C511.65 3.94001 520.34 0.0100098 532.32 0.0100098C564.6 0.0100098 563.23 40.6 563.23 40.6C563.23 40.6 599.43 56.94 568.23 91.92C551.68 110.48 525.11 117 502.39 106.86C492.69 102.53 483.5 95.16 477.49 82.87C477.49 82.87 381.14 76.73 381.14 187.32C381.14 187.32 375 131.74 348.18 131.74C325 131.74 320.81 154.55 320.81 154.55V154.54Z" fill="black"/>
<path d="M357.49 189.73L326.77 288.97C326.77 288.97 334.22 373.87 408.32 373.87C508.12 373.87 472 275.93 472 275.93L357.49 189.72V189.73Z" fill="#FFCDC2"/>
<path d="M530.17 169.73C534.146 169.73 537.37 166.506 537.37 162.53C537.37 158.554 534.146 155.33 530.17 155.33C526.194 155.33 522.97 158.554 522.97 162.53C522.97 166.506 526.194 169.73 530.17 169.73Z" fill="black"/>
<path d="M474.92 171.28C479.753 171.28 483.67 167.363 483.67 162.53C483.67 157.698 479.753 153.78 474.92 153.78C470.088 153.78 466.17 157.698 466.17 162.53C466.17 167.363 470.088 171.28 474.92 171.28Z" fill="black"/>
<path d="M453.4 123.89C463.81 121.7 473.9 122.06 483.68 124.97" stroke="black" stroke-width="8" stroke-linecap="round" stroke-linejoin="round"/>
<path d="M518.95 128.24C529.36 126.05 539.45 126.41 549.23 129.32" stroke="black" stroke-width="8" stroke-linecap="round" stroke-linejoin="round"/>
<path d="M513.57 233.66C498.43 238.7 486.7 235.32 479.24 225.64" stroke="black" stroke-width="8" stroke-linecap="round" stroke-linejoin="round"/>
<path d="M508.95 164.62L514.6 187.62C515.49 191.25 513.11 194.87 509.42 195.48L499.83 197.08" stroke="black" stroke-width="8" stroke-linecap="round" stroke-linejoin="round"/>
<path d="M373.59 222.79C373.59 222.79 397.97 262.85 448.36 282.71" stroke="black" stroke-width="8" stroke-linecap="round" stroke-linejoin="round"/>
<path d="M351.31 144.78C351.31 144.78 320.02 142.62 341.01 174.58" stroke="black" stroke-width="8" stroke-linecap="round" stroke-linejoin="round"/>
<path d="M1010.18 306.1L920.44 324.91V290.64L1010.18 271.84V306.1Z" fill="#3B82F6" stroke="black" stroke-width="8" stroke-linecap="round" stroke-linejoin="round"/>
<path d="M1019.37 399.05L872.4 583.61L986.63 593.42L1094.86 400.58C1083.63 366.24 1054.56 386.76 1019.38 399.05H1019.37Z" fill="#FFCDC2"/>
<path d="M1040.5 426.39C1040.5 426.39 1020.91 415.32 1010.21 381.18C999.5 347.03 938.74 330.41 967.2 314.51C967.2 314.51 965.17 301.19 976.79 302.66C976.79 302.66 974.5 290.48 986.12 291.94C986.12 291.94 984.14 274.48 1002.95 282.45C1019.92 289.63 1057.1 306.72 1068.56 312.08C1077.33 316.19 1086 299.64 1086 299.64C1086 299.64 1109.17 345.08 1094.84 400.59C1079.51 430.58 1061.36 438.92 1040.49 426.39H1040.5Z" fill="#FFCDC2"/>
<g style="mix-blend-mode:multiply" opacity="0.7">
<path d="M970.08 317.16L1016.08 346.04" stroke="#E0A4AB" stroke-width="8" stroke-linecap="round" stroke-linejoin="round"/>
</g>
<g style="mix-blend-mode:multiply" opacity="0.7">
<path d="M980.26 302.35L1031.05 331.14" stroke="#E0A4AB" stroke-width="8" stroke-linecap="round" stroke-linejoin="round"/>
</g>
<g style="mix-blend-mode:multiply" opacity="0.7">
<path d="M990.61 291.97L1050.69 318.5" stroke="#E0A4AB" stroke-width="8" stroke-linecap="round" stroke-linejoin="round"/>
</g>
<path d="M920.44 260.55L1046.82 234.59" stroke="black" stroke-width="8" stroke-linecap="round" stroke-linejoin="round"/>
<path d="M801.08 475.04L636.29 503.86L478.37 796.18L836.31 718.61L986.63 440.17L801.08 475.04Z" fill="black"/>
<path d="M52.97 632.21C52.97 632.21 -61.03 885.42 45.43 915.41C164.41 948.92 204.62 672.43 204.62 672.43L52.97 632.21Z" fill="#FFCDC2"/>
<path d="M486.53 627.38C486.53 627.38 502.51 615.92 515.36 625.58C526.23 633.75 520.22 648.22 520.22 648.22C520.22 648.22 556.28 653.73 540.76 688.6C540.76 688.6 559.09 702.57 542.94 727.71C542.94 727.71 554.06 745.24 530.85 756.37C507.64 767.5 470.1 763 434.66 773.53C394.25 785.54 381.13 797.83 381.13 797.83C360.55 772.25 348.34 739.99 338.48 704.81C338.48 704.81 385.05 691.47 401.39 674.77C417.73 658.06 420.14 625.34 448.31 616.77C453.99 615.04 459.06 614.49 463.55 614.72L472.11 635.71L486.54 627.39L486.53 627.38Z" fill="#FFCDC2"/>
<g style="mix-blend-mode:multiply" opacity="0.7">
<path d="M468.45 639.49L422.64 666.74" stroke="#E0A4AB" stroke-width="8" stroke-linecap="round" stroke-linejoin="round"/>
</g>
<path d="M338.48 704.81L151 765.99L45.43 915.41C150.97 939.13 320.43 843.08 381.13 797.83C389.67 754.35 378.82 721.49 338.48 704.81Z" fill="#FFCDC2"/>
<path d="M115.26 456.54C115.26 456.54 69.77 564.54 16.95 644.19L205.15 735.03C205.15 735.03 271.38 648.97 252.66 535.85C233.95 422.74 115.25 456.53 115.25 456.53L115.26 456.54Z" fill="#3B82F6"/>
<path d="M466.3 891.11L572.17 770.46" stroke="black" stroke-width="8" stroke-linecap="round" stroke-linejoin="round"/>
<path d="M211.23 704.81C211.23 704.81 262.44 554.8 204.63 503.85" stroke="black" stroke-width="8" stroke-linecap="round" stroke-linejoin="round"/>
<path d="M698.88 656.59C698.88 656.59 669.13 470.49 636.29 403.19" stroke="black" stroke-width="8" stroke-linecap="round" stroke-linejoin="round"/>
<path d="M1069.23 444.53C1069.23 444.53 976.44 658.02 900.57 663.76" stroke="black" stroke-width="8" stroke-linecap="round" stroke-linejoin="round"/>
<path d="M572.17 342.59L580.91 533.62" stroke="black" stroke-width="8" stroke-linecap="round" stroke-linejoin="round"/>
<path d="M381.14 797.83C381.14 797.83 108.36 983.16 16.95 896.92" stroke="black" stroke-width="8" stroke-linecap="round" stroke-linejoin="round"/>
<path d="M186.7 754.34L94.87 789.73" stroke="black" stroke-width="8" stroke-linecap="round" stroke-linejoin="round"/>
</svg>
